<?xml version="1.0" standalone="no"?>
<!DOCTYPE svg PUBLIC "-//W3C//DTD SVG 20010904//EN"
 "http://www.w3.org/TR/2001/REC-SVG-20010904/DTD/svg10.dtd">
<svg version="1.0" xmlns="http://www.w3.org/2000/svg"
 width="1060.000000pt" height="897.000000pt" viewBox="0 0 1060.000000 897.000000"
 preserveAspectRatio="xMidYMid meet">

<g transform="translate(0.000000,897.000000) scale(0.100000,-0.100000)"
fill="#000000" stroke="none">
<path d="M6009 7925 c-25 -13 -57 -70 -47 -80 3 -3 -11 -22 -31 -43 -30 -32
-45 -65 -90 -207 -55 -171 -73 -275 -53 -311 7 -13 5 -24 -9 -43 -10 -14 -63
-150 -118 -301 -163 -450 -151 -422 -179 -417 -14 3 -38 1 -53 -5 -24 -8 -33
-26 -78 -151 -27 -78 -131 -369 -230 -647 -98 -278 -204 -573 -234 -655 -31
-83 -61 -172 -68 -200 -6 -27 -16 -56 -22 -62 -5 -7 -7 -22 -4 -34 5 -17 2
-20 -16 -15 -125 31 -394 54 -492 41 -68 -8 -90 -27 -100 -86 -6 -37 -5 -45
13 -57 20 -13 20 -13 -5 -82 -31 -83 -26 -113 19 -130 31 -11 32 -12 11 -20
-28 -11 -52 -59 -96 -195 -41 -126 -52 -175 -43 -203 7 -20 113 -73 174 -87
26 -5 33 -3 39 12 3 10 17 29 29 41 13 13 57 91 99 172 46 89 86 155 100 164
28 18 85 112 85 139 0 10 -16 27 -35 38 -19 12 -35 22 -35 24 0 5 155 -56 164
-65 4 -5 0 -31 -9 -60 -11 -34 -15 -68 -12 -99 5 -39 -3 -70 -49 -197 -30 -84
-54 -159 -54 -167 0 -9 -4 -19 -10 -22 -19 -12 -10 -25 30 -45 36 -18 39 -23
29 -41 -6 -11 -8 -26 -6 -33 6 -16 127 -79 194 -100 54 -18 73 -15 73 9 0 7
34 87 76 177 59 127 74 170 70 195 -3 22 -1 31 7 28 62 -18 66 -17 90 32 14
27 32 71 41 100 l17 52 52 -20 c122 -49 240 -89 261 -89 29 0 55 53 40 78 -6
8 -51 39 -102 67 -129 72 -127 78 4 11 61 -31 114 -56 119 -56 18 0 -2 110
-28 149 -28 41 -35 85 -17 96 15 9 0 27 -17 21 -8 -3 -65 14 -126 38 -62 24
-123 47 -137 51 -50 15 -181 67 -177 71 4 5 240 -75 324 -110 35 -14 82 -26
106 -26 55 0 83 28 123 125 49 122 84 161 133 148 19 -5 20 -10 15 -62 -11
-102 36 -202 123 -262 42 -30 57 -34 125 -37 65 -4 85 0 131 21 30 14 74 44
96 68 49 49 52 49 151 -35 157 -134 309 -376 397 -633 37 -106 37 -111 38
-258 0 -127 -3 -162 -23 -229 -56 -194 -157 -352 -347 -542 -146 -146 -191
-175 -319 -199 -97 -19 -382 -19 -516 -1 -91 13 -119 9 -106 -12 8 -14 172
-52 227 -53 44 -1 117 -16 89 -18 -31 -2 -346 19 -363 25 -16 5 -12 13 27 53
83 90 118 201 79 250 -20 24 -20 25 -1 75 19 50 29 89 31 135 2 22 -12 29
-178 92 -99 37 -432 163 -740 279 -308 116 -693 261 -855 322 l-295 112 -215
-44 c-118 -24 -219 -46 -225 -51 -5 -4 -18 -8 -28 -10 -13 -3 -30 -30 -52 -87
-32 -78 -33 -83 -15 -92 10 -5 279 -105 597 -221 318 -116 581 -214 585 -218
4 -3 -11 -47 -33 -96 -32 -73 -38 -94 -29 -108 9 -15 8 -21 -3 -30 -24 -20 -8
-105 23 -123 38 -22 610 -234 632 -234 52 0 100 63 148 198 18 50 35 92 39 92
13 0 91 -33 91 -39 0 -4 -13 -14 -29 -24 -37 -21 -89 -99 -97 -144 -16 -83 12
-181 70 -251 l26 -30 -38 -108 c-47 -138 -99 -242 -134 -267 -36 -27 -146 -27
-248 -1 l-75 19 89 3 c50 2 96 8 104 14 10 9 13 32 10 90 -3 71 -6 80 -33 108
-27 27 -41 32 -120 41 -122 14 -654 14 -793 0 -122 -12 -174 -28 -190 -58 -19
-35 -25 -93 -12 -124 22 -53 48 -59 303 -69 134 -5 233 -12 235 -18 9 -27 79
-105 132 -146 78 -61 166 -102 253 -117 103 -17 269 -6 396 26 93 24 109 26
166 16 35 -6 133 -14 219 -18 153 -6 156 -7 150 -27 -22 -71 -61 -119 -124
-152 -33 -18 -63 -19 -505 -17 -258 1 -618 7 -798 12 -353 10 -432 5 -527 -32
-77 -31 -91 -61 -88 -190 3 -110 22 -137 25 -37 6 145 15 156 120 140 37 -6
298 -15 578 -20 638 -11 867 -27 968 -67 21 -9 36 -21 34 -27 -14 -41 -153
-69 -423 -86 -147 -9 -983 -27 -1529 -33 -224 -2 -231 -3 -273 -27 -26 -14
-45 -34 -49 -48 -8 -32 6 -322 16 -340 18 -33 26 18 27 175 0 90 3 166 7 169
3 3 30 -3 59 -14 68 -25 91 -29 283 -46 365 -34 566 -41 1165 -41 697 0 975
16 1332 76 259 43 364 80 700 246 243 120 321 150 361 139 29 -7 34 -18 53
-104 8 -38 42 -118 88 -207 90 -174 135 -301 120 -342 -13 -37 -71 -68 -174
-92 -222 -51 -417 -59 -1640 -66 -1014 -6 -1424 -1 -1990 27 -295 15 -1028 17
-1503 4 -276 -7 -327 -11 -327 -23 0 -12 17 -14 107 -9 60 3 347 11 638 17
519 11 655 10 1000 -10 467 -28 909 -35 1885 -33 1331 3 1642 15 1866 77 109
30 158 66 162 120 5 59 -33 167 -119 335 -54 105 -84 177 -93 223 -18 87 -36
107 -92 107 -59 0 -135 -30 -369 -147 -110 -55 -240 -116 -290 -136 -302 -120
-781 -175 -1600 -182 -700 -6 -1400 34 -1544 87 -47 18 -52 22 -35 31 12 7
264 13 729 18 1157 12 1449 38 1472 127 22 87 -181 111 -1142 133 -247 6 -475
12 -507 12 -68 2 -63 15 20 49 l57 23 420 -5 c231 -3 620 -5 865 -5 l445 0 46
27 c50 29 103 99 114 149 6 28 29 48 40 37 3 -2 -26 -78 -64 -169 -102 -246
-109 -294 -44 -336 22 -15 47 -18 138 -17 128 1 252 25 443 86 213 67 543 199
589 234 35 27 63 71 63 101 0 18 -243 414 -337 552 -96 138 -192 249 -237 270
-59 29 -126 28 -154 -2 -24 -26 -29 -69 -9 -85 6 -5 37 -15 66 -21 65 -14 118
-51 137 -97 29 -69 11 -169 -39 -222 -38 -41 -78 -56 -147 -56 -136 0 -218 78
-205 194 10 84 35 129 103 189 34 29 62 59 62 65 0 27 -37 48 -70 41 -51 -11
-107 -79 -165 -200 -50 -102 -165 -423 -165 -458 0 -39 -20 -42 -196 -36 -93
4 -181 10 -197 14 l-27 7 43 28 c58 36 87 75 87 116 0 66 -71 82 -175 39 -107
-44 -116 -32 -61 81 46 92 117 302 106 309 -5 3 -19 20 -32 38 l-23 32 34 -28
c75 -62 152 -86 220 -67 54 14 123 83 147 145 12 33 21 44 33 41 9 -3 79 -10
156 -17 162 -14 398 -6 497 15 69 15 134 43 124 53 -3 3 30 23 74 45 65 31 99
58 193 151 141 138 223 248 292 391 147 302 138 540 -35 891 -106 217 -238
383 -379 480 l-69 47 16 31 c21 41 27 141 13 194 -16 60 -52 97 -128 135 -57
28 -77 32 -142 33 -112 0 -180 -42 -230 -142 -20 -40 -22 -41 -60 -36 -36 5
-44 2 -74 -28 -20 -21 -49 -71 -72 -127 -57 -138 -72 -144 -223 -83 -145 58
-410 141 -449 141 -62 0 117 -93 297 -155 58 -19 140 -50 182 -68 69 -28 78
-35 78 -58 0 -15 9 -38 20 -52 23 -29 50 -89 50 -111 0 -9 -65 18 -197 84
-322 160 -452 208 -805 300 -207 53 -218 55 -218 40 0 -5 46 -23 103 -40 200
-61 524 -169 620 -209 53 -21 180 -86 282 -143 151 -84 185 -107 185 -125 0
-12 -4 -25 -10 -28 -14 -9 -311 104 -340 130 -52 46 -135 82 -303 130 -72 21
-125 31 -131 26 -7 -5 -103 27 -248 84 -131 51 -246 92 -255 91 -28 -2 -30 57
-2 85 21 21 26 22 203 16 132 -4 213 -13 299 -30 65 -13 120 -21 122 -17 3 4
-4 15 -15 25 -28 25 -25 33 11 31 40 -1 50 21 14 30 -25 6 -27 10 -22 43 2 20
52 167 110 326 58 160 184 515 281 790 97 275 180 507 185 515 14 25 63 23 99
-4 19 -13 148 -63 292 -111 214 -72 266 -93 296 -120 32 -30 35 -37 29 -67 -4
-18 -14 -45 -21 -60 -8 -15 -14 -33 -14 -40 0 -7 31 -28 69 -45 85 -40 167
-114 206 -184 34 -64 46 -180 25 -255 -32 -112 -138 -218 -262 -260 -97 -33
-289 -17 -274 23 4 8 9 26 12 39 3 13 8 24 9 24 2 0 32 -7 66 -16 74 -19 143
-14 220 16 77 31 115 65 151 137 43 88 43 157 0 245 -38 77 -127 179 -190 216
-42 24 -57 27 -137 27 -82 0 -95 -3 -154 -34 -82 -42 -154 -115 -175 -177 -23
-67 -21 -187 4 -267 23 -73 86 -175 132 -210 29 -23 29 -24 15 -60 -9 -19 -13
-38 -10 -40 2 -3 30 -3 62 0 31 3 95 0 141 -6 160 -21 252 10 358 121 77 80
92 90 137 90 51 0 107 -35 206 -129 324 -309 565 -720 653 -1114 85 -384 42
-712 -159 -1188 -204 -486 -444 -824 -668 -941 -34 -18 -64 -35 -66 -37 -3 -2
9 -18 26 -36 17 -17 61 -84 98 -147 36 -63 70 -118 74 -123 4 -4 38 13 75 38
67 45 120 66 144 57 40 -14 -25 -99 -123 -161 -36 -23 -63 -46 -60 -52 10 -15
141 60 193 109 44 43 44 44 38 93 -5 39 -4 49 7 49 21 0 158 -155 206 -233
147 -241 262 -547 246 -654 -8 -53 -45 -99 -88 -108 -56 -11 -69 -17 -61 -25
13 -12 1694 -25 1694 -13 0 12 -518 23 -1117 23 -249 0 -453 3 -453 6 0 3 10
20 23 37 19 28 22 44 21 122 -1 77 -6 105 -38 195 -90 250 -210 464 -334 592
-86 89 -119 107 -129 68 -4 -14 -14 -20 -34 -20 -37 0 -87 -20 -143 -59 -25
-17 -48 -31 -53 -31 -4 0 -30 39 -57 88 -27 48 -64 107 -81 132 l-32 45 60 35
c181 105 401 393 567 743 77 164 182 428 219 557 149 513 54 1047 -275 1542
-175 262 -428 527 -534 559 -70 21 -105 6 -191 -82 -102 -105 -143 -124 -269
-123 -126 1 -250 8 -250 14 0 3 4 11 9 19 7 10 13 11 30 1 34 -18 150 -24 214
-10 87 18 189 73 241 131 158 176 132 425 -59 567 -33 25 -79 53 -102 64 -24
10 -43 20 -43 21 0 1 9 29 19 62 13 40 16 67 10 82 -6 18 -5 23 6 23 28 0 15
18 -20 30 -19 6 -35 15 -35 19 0 7 182 493 246 654 19 50 32 97 29 108 -5 14
0 20 20 25 29 7 65 48 65 73 0 10 29 92 65 182 35 91 67 185 71 210 4 24 15
55 26 68 27 35 22 57 -20 99 -59 59 -460 223 -543 222 -19 -1 -46 -7 -60 -15z
m137 -26 c167 -52 417 -163 453 -202 27 -29 23 -73 -6 -79 -14 -2 -17 -12 -15
-44 3 -32 -13 -83 -67 -224 -39 -100 -71 -191 -71 -201 0 -23 -53 -49 -100
-49 -36 0 -39 -17 -5 -30 14 -5 25 -15 25 -23 0 -7 -26 -82 -59 -167 -32 -85
-93 -247 -136 -360 -43 -113 -79 -207 -81 -209 -2 -2 -117 38 -256 89 -139 51
-263 97 -276 101 l-22 9 20 52 c11 29 71 191 132 360 73 202 117 309 127 312
9 3 117 -26 241 -63 211 -64 266 -75 226 -46 -20 15 -391 143 -426 147 -14 2
-31 14 -39 30 -13 23 -13 35 -3 88 15 72 98 332 118 372 16 32 60 56 89 51 20
-4 352 -117 453 -154 29 -10 63 -19 75 -19 20 1 21 2 5 14 -10 7 -111 50 -225
96 -158 64 -222 85 -268 88 -33 2 -64 7 -68 11 -12 11 30 59 56 64 12 2 25 5
28 6 4 0 38 -9 75 -20z m-25 -1905 c97 -53 209 -220 209 -311 0 -59 -34 -143
-72 -181 -18 -17 -55 -41 -82 -53 -80 -35 -216 -38 -260 -6 -19 14 -14 31 87
287 58 146 65 182 42 216 -14 22 -22 25 -51 21 -86 -14 -204 -109 -238 -192
-40 -94 -8 -224 72 -301 l41 -39 -17 -39 -17 -38 -43 47 c-72 77 -122 207
-122 315 0 129 94 244 239 292 74 24 145 18 212 -18z m-93 -90 c2 -17 -8 -59
-21 -95 -62 -165 -128 -333 -132 -338 -12 -11 -65 56 -90 112 -34 74 -31 144
9 212 43 73 147 147 201 142 26 -2 30 -7 33 -33z m137 -916 c69 -36 102 -74
115 -133 19 -82 -7 -182 -57 -227 -49 -45 -167 -62 -255 -38 -48 14 -97 55
-114 97 -24 55 -14 61 11 6 33 -74 64 -88 190 -88 76 0 108 4 132 17 72 40
102 136 68 223 -28 76 -111 123 -230 132 -62 4 -74 2 -104 -18 -19 -13 -49
-50 -66 -82 -25 -46 -34 -55 -43 -44 -24 28 58 144 123 174 48 22 169 12 230
-19z m-97 -42 c96 -14 165 -73 176 -149 18 -121 -94 -197 -249 -168 -70 13
-92 32 -124 114 l-24 59 23 48 c25 54 64 96 95 102 21 5 32 4 103 -6z m-247
-208 c7 -80 29 -114 101 -153 47 -26 63 -30 138 -30 68 0 94 5 130 22 l45 22
-40 -35 c-79 -70 -210 -82 -290 -26 -82 58 -134 163 -118 242 10 50 28 28 34
-42z m-1444 -167 c91 -40 174 -81 202 -100 12 -7 10 -17 -11 -53 -14 -23 -35
-51 -46 -61 -18 -17 -23 -17 -44 -4 -12 9 -80 39 -150 67 -145 60 -144 58
-107 154 23 63 7 63 156 -3z m780 -287 c4 -31 -50 -158 -69 -162 -29 -6 -251
88 -285 120 -30 29 -30 32 -18 62 17 40 23 119 10 126 -5 3 -21 -29 -34 -70
-14 -41 -26 -77 -28 -79 -2 -3 -11 2 -20 11 -14 14 -14 23 -4 64 7 26 18 62
26 80 l14 33 203 -83 c158 -64 204 -87 205 -102z m-791 80 l123 -36 -23 -37
c-13 -20 -51 -90 -84 -157 -34 -66 -71 -129 -81 -138 -17 -16 -22 -16 -43 -3
-12 8 -51 25 -85 38 -49 18 -63 29 -63 44 0 32 89 287 107 307 9 10 18 18 21
18 2 0 60 -16 128 -36z m434 -169 c8 -7 53 -30 100 -50 140 -61 138 -44 42
-252 -52 -115 -86 -179 -97 -179 -13 -2 -13 -1 0 3 8 2 15 9 15 14 0 11 -97
57 -162 78 -43 14 -47 27 -19 62 48 61 139 295 122 312 -11 11 -7 18 -76 -143
-32 -74 -62 -139 -66 -144 -10 -12 -59 9 -59 25 0 8 78 231 105 301 6 15 10
15 43 1 20 -8 44 -21 52 -28z m-1058 -366 c220 -83 578 -219 1348 -509 245
-92 458 -173 474 -179 l30 -12 -103 -98 -104 -98 -976 389 c-537 214 -1040
415 -1118 446 -78 31 -141 58 -139 60 2 1 86 20 187 42 101 21 185 39 186 39
0 1 97 -35 215 -80z m-398 -130 c143 -56 420 -163 616 -239 195 -76 594 -230
886 -344 293 -113 537 -206 543 -206 6 0 11 5 11 10 0 6 5 10 12 10 6 0 37 19
67 43 77 60 79 61 73 31 -5 -27 -77 -112 -124 -146 l-31 -21 5 26 c3 15 2 30
-3 33 -13 8 -41 -56 -36 -82 4 -23 3 -23 -30 6 -62 55 -111 74 -187 73 -73 -1
-160 24 -182 52 -6 8 -195 82 -420 164 -225 82 -656 240 -959 350 -302 111
-555 203 -562 206 -14 5 36 135 52 135 5 0 126 -46 269 -101z m1212 -638 c165
-61 317 -117 337 -126 l36 -15 -23 -67 c-13 -38 -29 -80 -34 -95 l-11 -27 -83
26 c-93 28 -532 199 -598 233 -48 25 -48 27 0 133 28 61 32 66 53 57 12 -5
157 -59 323 -119z m-178 -211 c268 -106 397 -153 424 -154 32 -1 32 -12 -3
-38 -24 -18 -26 -18 -334 97 -170 64 -314 120 -319 125 -5 5 -10 25 -12 44
l-3 36 50 -26 c28 -14 117 -52 197 -84z m1182 8 c0 -57 -22 -100 -88 -171
l-60 -64 -5 48 c-3 27 -12 60 -20 75 -14 26 -12 28 67 99 89 80 106 82 106 13z
m-326 -2 c85 -35 146 -121 146 -206 0 -87 -75 -198 -146 -216 -78 -20 -186 31
-239 110 -22 35 -26 49 -23 96 8 109 70 190 147 190 28 0 33 3 28 20 -4 17 0
20 24 20 16 0 44 -6 63 -14z m-449 -126 c13 -6 15 -9 5 -9 -8 0 -22 4 -30 9
-18 12 -2 12 25 0z m1152 -126 c-3 -3 -12 -4 -19 -1 -8 3 -5 6 6 6 11 1 17 -2
13 -5z m75 -86 c74 -22 189 -170 431 -557 96 -153 147 -243 147 -261 0 -29
-37 -73 -81 -96 -97 -50 -487 -194 -648 -239 -236 -66 -447 -75 -483 -21 -22
32 -6 89 94 328 51 123 59 151 47 159 -8 5 -20 7 -26 4 -18 -6 -16 8 7 95 68
250 183 502 255 558 30 24 75 29 75 10 0 -7 -24 -32 -54 -54 -62 -48 -91 -103
-101 -186 -13 -107 15 -166 99 -211 33 -18 58 -22 128 -22 80 0 90 2 130 30
90 63 121 202 66 295 -28 48 -79 83 -138 95 -78 15 -88 27 -50 65 23 23 46 25
102 8z m-1405 -232 c4 -3 4 -8 2 -10 -2 -2 -187 -6 -411 -7 -224 -2 -401 -1
-393 3 34 20 784 32 802 14z m-873 -10 c-3 -8 3 -19 15 -25 26 -15 727 -15
840 0 70 8 87 8 98 -4 21 -20 30 -132 12 -143 -7 -4 -81 -7 -164 -6 -82 1
-162 -1 -177 -4 -47 -9 -31 -24 26 -24 35 0 89 -11 148 -31 77 -26 110 -32
188 -33 52 -1 105 3 117 7 21 8 22 6 17 -22 -9 -45 13 -88 58 -115 l40 -24
-68 -15 c-132 -30 -249 -40 -341 -27 -105 14 -161 34 -239 87 -63 43 -169 151
-159 161 7 7 14 8 98 10 65 2 69 10 30 57 -16 17 -36 46 -45 64 -21 39 -64 42
-104 8 -21 -18 -26 -31 -26 -65 l1 -42 -102 1 c-56 0 -159 4 -229 8 -148 8
-168 18 -168 83 0 51 14 77 53 93 44 19 88 19 81 1z m492 -126 c18 -25 33 -49
33 -53 1 -4 -29 -7 -66 -5 -66 3 -68 4 -71 32 -4 32 32 79 57 74 8 -2 29 -23
47 -48z m915 -126 c21 -25 -17 -80 -84 -121 -51 -32 -59 -34 -89 -24 -48 17
-78 39 -88 66 -13 35 -3 56 25 49 13 -3 46 5 81 20 69 29 135 34 155 10z"/>
</g>
</svg>
